Patient4_TMGait_0pt7_01_right_09_GRF.mot
version=1
nRows=52
nColumns=19
inDegrees=no
endheader
time	F1x	F1y	F1z	M1x	M1y	M1z	F2x	F2y	F2z	M2x	M2y	M2z	EC1x	EC1y	EC1z	EC2x	EC2y	EC2z
9.81	23.8021	769.9555	56.7255	-278.9892	-47.0462	738.817	-0.96294	-1.4803	-8.0225	2.966	2.6092	3.6572	-0.0592	0.0182	-0.0073	-0.0462	0.0165	0.9585
9.8211	24.0326	765.096	59.7332	-277.7564	-48.5235	732.3197	-0.67475	0.045012	-5.2905	2.363	1.7639	3.6001	-0.0592	0.0182	-0.0073	-0.0462	0.0165	0.9585
9.8321	24.7204	758.8851	62.1573	-275.8513	-49.3454	724.0861	-0.4786	1.4152	-3.0512	1.904	1.1128	3.6921	-0.0592	0.0182	-0.0073	-0.0462	0.0165	0.9585
9.8432	25.7702	751.6238	63.8288	-273.3461	-49.4627	714.5449	-0.36646	2.5326	-1.3974	1.5986	0.66203	3.8797	-0.0592	0.0182	-0.0073	-0.0462	0.0165	0.9585
9.8543	27.0299	743.829	64.7572	-270.4392	-48.9671	704.3006	-0.32735	3.4069	-0.28392	1.4382	0.37926	4.1558	-0.0592	0.0182	-0.0073	-0.0462	0.0165	0.9585
9.8654	28.3468	736.1477	65.0336	-267.4024	-48.0043	694.0928	-0.33663	4.0272	0.36978	1.3821	0.24022	4.4451	-0.0592	0.0182	-0.0073	-0.0462	0.0165	0.9585
9.8764	29.6211	729.2741	64.8211	-264.5364	-46.7579	684.6328	-0.39742	4.443	0.69067	1.3957	0.20072	4.7269	-0.0592	0.0182	-0.0073	-0.0462	0.0165	0.9585
9.8875	30.7921	723.843	64.268	-262.1259	-45.3761	676.5293	-0.48017	4.6382	0.77528	1.4254	0.23239	4.8943	-0.0592	0.0182	-0.0073	-0.0462	0.0165	0.9585
9.8986	31.8875	720.3842	63.556	-260.4045	-44.0023	670.2645	-0.59956	4.6063	0.71999	1.4214	0.30795	4.8844	-0.0592	0.0182	-0.0073	-0.0462	0.0165	0.9585
9.9096	32.9377	719.2113	62.7852	-259.5193	-42.6937	666.1004	-0.72558	4.2448	0.59199	1.3155	0.40264	4.5105	-0.0592	0.0182	-0.0073	-0.0462	0.0165	0.9585
9.9207	33.9822	720.3874	62.0726	-259.5063	-41.516	664.0958	-0.87007	3.4638	0.43391	1.0497	0.5148	3.6666	-0.0592	0.0182	-0.0073	-0.0462	0.0165	0.9585
9.9318	35.0393	723.6818	61.4632	-260.2837	-40.4756	664.0489	-0.98558	2.0954	0.28024	0.55446	0.6176	2.1215	-0.0592	0.0182	-0.0073	-0.0462	0.0165	0.9585
9.9429	36.0879	728.6059	60.9949	-261.6584	-39.5831	665.5185	-1.0652	0.043698	0.14203	-0.21563	0.7004	-0.23102	-0.0592	0.0182	-0.0073	-0.0462	0.0165	0.9585
9.9539	37.102	734.4457	60.689	-263.3466	-38.8389	667.8747	-1.0203	-2.7772	0.035747	-1.2887	0.71663	-3.5035	-0.0592	0.0182	-0.0073	-0.0462	0.0165	0.9585
9.965	38.0046	740.2919	60.5527	-264.9929	-38.2517	670.3309	-0.80772	-6.2557	-0.03049	-2.6231	0.63348	-7.5461	-0.0592	0.0182	-0.0073	-0.0462	0.0165	0.9585
9.9761	38.7226	745.1426	60.6069	-266.2075	-37.854	672.0325	-0.3035	-10.0879	-0.041807	-4.0924	0.38597	-12.0198	-0.0592	0.0182	-0.0073	-0.0462	0.0165	0.9585
9.9871	39.2221	748.1137	60.8282	-266.6456	-37.6358	672.2359	0.55993	-13.554	0.034379	-5.4145	-0.096915	-16.0731	-0.0592	0.0182	-0.0073	-0.0462	0.0165	0.9585
9.9982	39.533	748.6285	61.214	-266.0799	-37.5926	670.4357	1.8958	-15.4539	0.22927	-6.114	-0.89207	-18.3338	-0.0592	0.0182	-0.0073	-0.0462	0.0165	0.9585
10.0093	39.7977	746.5774	61.7222	-264.4592	-37.652	666.5278	3.7201	-13.9349	0.58303	-5.4653	-2.0535	-16.6354	-0.0592	0.0182	-0.0073	-0.0462	0.0165	0.9585
10.0204	40.2276	742.2013	62.335	-261.8741	-37.743	660.6689	6.019	-6.4796	1.135	-2.4791	-3.6055	-8.0588	-0.0592	0.0182	-0.0073	-0.0462	0.0165	0.9585
10.0314	41.083	735.8785	62.9725	-258.4874	-37.7264	653.1109	8.5688	10.0456	1.8997	4.0718	-5.4649	11.0636	-0.0592	0.0182	-0.0073	-0.0462	0.0165	0.9585
10.0425	42.6009	727.7982	63.5112	-254.4211	-37.432	643.9583	10.9638	39.0818	2.8511	15.5322	-7.4126	44.7579	-0.0592	0.0182	-0.0073	-0.0462	0.0165	0.9585
10.0536	44.899	717.6552	63.7527	-249.6441	-36.6596	632.9074	12.4313	83.7608	3.8785	33.1171	-8.9936	96.7089	-0.0592	0.0182	-0.0073	-0.0462	0.0165	0.9585
10.0646	47.9146	704.4446	63.4127	-243.8893	-35.191	619.1055	11.8092	145.8024	4.7843	57.4772	-9.4879	168.9706	-0.0592	0.0182	-0.0073	-0.0462	0.0165	0.9585
10.0757	51.3672	686.4642	62.2051	-236.645	-32.8776	601.1398	7.4625	223.8491	5.2111	88.0454	-7.8195	260.0303	-0.0592	0.0182	-0.0073	-0.0462	0.0165	0.9585
10.0868	54.7461	661.6592	59.8466	-227.2624	-29.6489	577.3542	-2.2844	311.5749	4.5972	122.2968	-2.703	362.6097	-0.0592	0.0182	-0.0073	-0.0462	0.0165	0.9585
10.0979	57.4231	628.1448	56.1719	-215.1291	-25.5843	546.2589	-17.1372	397.0282	2.0598	155.4962	6.6957	462.8447	-0.0592	0.0182	-0.0073	-0.0462	0.0165	0.9585
10.1089	58.7527	584.9131	51.2015	-199.9103	-20.9329	507.0871	-33.1983	467.3217	-3.923	182.5589	20.4054	545.526	-0.0592	0.0182	-0.0073	-0.0462	0.0165	0.9585
10.12	58.2258	532.4143	45.1953	-181.7265	-16.0978	460.3051	-47.2149	516.605	-12.5486	201.1903	36.154	603.5012	-0.0592	0.0182	-0.0073	-0.0462	0.0165	0.9585
10.1311	55.5183	472.472	38.6113	-161.1356	-11.5708	407.5454	-57.4455	546.4298	-22.4141	212.0386	51.706	638.2815	-0.0592	0.0182	-0.0073	-0.0462	0.0165	0.9585
10.1421	50.6614	407.7491	32.0191	-138.9846	-7.8203	351.0678	-63.5115	562.3802	-32.6144	217.3721	65.7915	656.4035	-0.0592	0.0182	-0.0073	-0.0462	0.0165	0.9585
10.1532	43.8562	341.5455	25.7849	-116.3478	-5.0773	293.7077	-66.1175	571.2621	-41.3735	219.9535	76.8221	665.8521	-0.0592	0.0182	-0.0073	-0.0462	0.0165	0.9585
10.1643	35.6209	277.2176	20.1853	-94.3534	-3.4016	238.238	-66.5116	578.4521	-48.5642	221.952	85.053	673.0693	-0.0592	0.0182	-0.0073	-0.0462	0.0165	0.9585
10.1754	26.6481	217.8937	15.3498	-74.0605	-2.6507	187.3078	-65.6903	587.9298	-53.4428	224.9723	90.17	682.6385	-0.0592	0.0182	-0.0073	-0.0462	0.0165	0.9585
10.1864	17.846	165.7523	11.3714	-56.2263	-2.5773	142.6448	-64.2727	601.8992	-56.7042	229.8487	93.1677	697.085	-0.0592	0.0182	-0.0073	-0.0462	0.0165	0.9585
10.1975	9.9249	121.9303	8.2591	-41.2463	-2.9163	105.1729	-62.5821	620.7576	-58.7645	236.7046	94.6795	716.8182	-0.0592	0.0182	-0.0073	-0.0462	0.0165	0.9585
10.2086	3.4007	86.4303	5.8966	-29.1379	-3.3734	74.8019	-60.7975	643.0939	-60.3543	244.9412	95.5942	740.1913	-0.0592	0.0182	-0.0073	-0.0462	0.0165	0.9585
10.2196	-1.5409	58.6181	4.1663	-19.6811	-3.7752	51.0083	-59.1851	666.6815	-62.1576	253.6576	96.7163	764.7209	-0.0592	0.0182	-0.0073	-0.0462	0.0165	0.9585
10.2307	-4.7999	37.4782	2.8695	-12.5276	-3.9248	32.9064	-57.6852	689.4351	-64.0811	262.0462	97.9792	787.9714	-0.0592	0.0182	-0.0073	-0.0462	0.0165	0.9585
10.2418	-6.4454	21.9634	1.903	-7.3055	-3.7668	19.643	-56.3757	709.8256	-66.246	269.5194	99.4904	808.2495	-0.0592	0.0182	-0.0073	-0.0462	0.0165	0.9585
10.2529	-6.6092	11.0954	1.1563	-3.6714	-3.2665	10.3606	-54.9307	726.8813	-68.0403	275.751	100.5361	824.3421	-0.0592	0.0182	-0.0073	-0.0462	0.0165	0.9585
10.2639	-5.7589	4.0457	0.59708	-1.3336	-2.5598	4.3443	-53.2958	740.0019	-69.4161	280.5258	101.0061	835.6548	-0.0592	0.0182	-0.0073	-0.0462	0.0165	0.9585
10.275	-4.5018	0.066661	0.23107	-0.025671	-1.8598	0.96255	-51.2505	748.7645	-70.0011	283.7279	100.457	841.6676	-0.0592	0.0182	-0.0073	-0.0462	0.0165	0.9585
10.2861	-3.1797	-1.7403	0.020729	0.55568	-1.2533	-0.57199	-48.8775	753.2033	-69.8923	285.3596	99.0069	842.5461	-0.0592	0.0182	-0.0073	-0.0462	0.0165	0.9585
10.2971	-2.0441	-2.1008	-0.071276	0.66187	-0.79384	-0.85597	-46.144	753.6187	-69.2422	285.5508	96.8197	838.6154	-0.0592	0.0182	-0.0073	-0.0462	0.0165	0.9585
10.3082	-1.1463	-1.6682	-0.086513	0.50643	-0.46889	-0.50614	-43.1988	751.0328	-68.1652	284.6712	94.0864	831.0624	-0.0592	0.0182	-0.0073	-0.0462	0.0165	0.9585
10.3193	-0.54381	-0.85374	-0.052625	0.22842	-0.27811	0.17871	-40.0538	746.6681	-66.9908	283.1891	91.1623	821.1969	-0.0592	0.0182	-0.0073	-0.0462	0.0165	0.9585
10.3304	-0.13916	0.042398	0.007205	-0.076049	-0.17639	0.89514	-36.8778	742.0457	-65.6744	281.6748	88.083	810.7052	-0.0592	0.0182	-0.0073	-0.0462	0.0165	0.9585
10.3414	0.045102	0.8647	0.065575	-0.35181	-0.14219	1.5773	-33.7083	738.463	-64.4408	280.618	85.0939	800.9654	-0.0592	0.0182	-0.0073	-0.0462	0.0165	0.9585
10.3525	0.15024	1.5243	0.12523	-0.57255	-0.14296	2.102	-30.7018	737.0344	-63.1929	280.4365	82.159	793.2101	-0.0592	0.0182	-0.0073	-0.0462	0.0165	0.9585
10.3636	0.12491	2.0149	0.15401	-0.73727	-0.15879	2.5208	-27.8718	738.4104	-62.0455	281.3631	79.4013	788.1325	-0.0592	0.0182	-0.0073	-0.0462	0.0165	0.9585
10.3746	0.1008	2.3458	0.18389	-0.85156	-0.18506	2.7778	-25.3183	742.7942	-61.0058	283.4572	76.8561	786.0235	-0.0592	0.0182	-0.0073	-0.0462	0.0165	0.9585
